<svg xmlns="http://www.w3.org/2000/svg" viewBox="0 0 27 29"><path fill="#79b260" d="M26.33 2.22c-.3.66-.67 1.53-1.1 2.61a316.26 316.26 0 0 0-2.78 7.31l-1.27 3.49-1.29 3.52c-.2.45-.43.86-.68 1.23-.25.37-.63.55-1.14.55H4.97c-.5 0-.9-.2-1.2-.57-.29-.38-.5-.78-.62-1.21L.08 7.67c-.12-.5-.08-.93.14-1.28.21-.36.77-.53 1.68-.53h19.31L23.5.93c.22-.48.54-.77.94-.87a1.72 1.72 0 0 1 1.95.9c.2.36.17.78-.05 1.26zM9.29 26.27c0 .76-.27 1.4-.8 1.93s-1.17.8-1.93.8c-.78 0-1.44-.27-1.97-.8a2.63 2.63 0 0 1-.8-1.93c0-.76.27-1.4.8-1.95a2.64 2.64 0 0 1 1.97-.82c.76 0 1.4.28 1.93.82.53.54.8 1.2.8 1.95zm8.7-1.95a2.6 2.6 0 0 0-1.92-.82c-.79 0-1.45.28-1.97.82a2.7 2.7 0 0 0-.8 1.95c0 .76.27 1.4.8 1.93s1.18.8 1.97.8c.75 0 1.4-.27 1.93-.8s.8-1.17.8-1.93-.27-1.4-.8-1.95z"/></svg>